<mxfile host="app.diagrams.net" modified="2023-05-27T11:19:33.655Z" agent="Mozilla/5.0 (X11; Ubuntu; Linux x86_64; rv:109.0) Gecko/20100101 Firefox/113.0" etag="pUqrfPrS58y7o5_OArHo" version="21.3.4" type="github">
  <diagram id="zFlVRU_5h1scILDpNqvU" name="Page-1">
    <mxGraphModel dx="1054" dy="634" grid="0" gridSize="10" guides="1" tooltips="1" connect="1" arrows="1" fold="1" page="1" pageScale="1" pageWidth="1654" pageHeight="1169" background="#FFFFFF" math="0" shadow="0">
      <root>
        <mxCell id="0" />
        <mxCell id="1" parent="0" />
        <mxCell id="B9Ugd9xLmMCQVDh8KPLv-14" value="" style="shape=cube;whiteSpace=wrap;html=1;boundedLbl=1;backgroundOutline=1;darkOpacity=0.05;darkOpacity2=0.1;size=100;perimeterSpacing=0;strokeColor=#b46504;fillColor=#fad7ac;" vertex="1" parent="1">
          <mxGeometry x="440" y="270" width="220" height="400" as="geometry" />
        </mxCell>
        <mxCell id="B9Ugd9xLmMCQVDh8KPLv-15" value="128" style="text;html=1;strokeColor=none;fillColor=none;align=center;verticalAlign=middle;whiteSpace=wrap;rounded=0;fontStyle=1" vertex="1" parent="1">
          <mxGeometry x="588" y="675" width="40" height="30" as="geometry" />
        </mxCell>
        <mxCell id="B9Ugd9xLmMCQVDh8KPLv-16" value="&lt;div&gt;16&lt;/div&gt;" style="text;html=1;strokeColor=none;fillColor=none;align=center;verticalAlign=middle;whiteSpace=wrap;rounded=0;fontStyle=1" vertex="1" parent="1">
          <mxGeometry x="443" y="610" width="40" height="30" as="geometry" />
        </mxCell>
        <mxCell id="B9Ugd9xLmMCQVDh8KPLv-17" value="5" style="text;html=1;strokeColor=none;fillColor=none;align=center;verticalAlign=middle;whiteSpace=wrap;rounded=0;fontStyle=1" vertex="1" parent="1">
          <mxGeometry x="453" y="500" width="40" height="30" as="geometry" />
        </mxCell>
        <mxCell id="B9Ugd9xLmMCQVDh8KPLv-18" value="5" style="text;html=1;strokeColor=none;fillColor=none;align=center;verticalAlign=middle;whiteSpace=wrap;rounded=0;fontStyle=1" vertex="1" parent="1">
          <mxGeometry x="443" y="460" width="40" height="30" as="geometry" />
        </mxCell>
        <mxCell id="B9Ugd9xLmMCQVDh8KPLv-19" value="" style="shape=cube;whiteSpace=wrap;html=1;boundedLbl=1;backgroundOutline=1;darkOpacity=0.05;darkOpacity2=0.1;strokeColor=#C73500;fillColor=#fa6800;fontColor=#000000;" vertex="1" parent="1">
          <mxGeometry x="473" y="437" width="160" height="67.5" as="geometry" />
        </mxCell>
        <mxCell id="B9Ugd9xLmMCQVDh8KPLv-20" value="" style="endArrow=none;dashed=1;html=1;rounded=0;entryX=0;entryY=0;entryDx=100;entryDy=400;entryPerimeter=0;exitX=0.455;exitY=0.253;exitDx=0;exitDy=0;exitPerimeter=0;" edge="1" parent="1" source="B9Ugd9xLmMCQVDh8KPLv-14" target="B9Ugd9xLmMCQVDh8KPLv-14">
          <mxGeometry width="50" height="50" relative="1" as="geometry">
            <mxPoint x="764" y="471" as="sourcePoint" />
            <mxPoint x="749" y="386" as="targetPoint" />
          </mxGeometry>
        </mxCell>
        <mxCell id="fAfMOuDEGAaXCi6AJNAk-10" value="" style="shape=cube;whiteSpace=wrap;html=1;boundedLbl=1;backgroundOutline=1;darkOpacity=0.05;darkOpacity2=0.1;size=100;perimeterSpacing=0;strokeColor=#b46504;fillColor=#fad7ac;" parent="1" vertex="1">
          <mxGeometry x="60" y="260" width="120" height="400" as="geometry" />
        </mxCell>
        <mxCell id="fAfMOuDEGAaXCi6AJNAk-14" value="5" style="text;html=1;strokeColor=none;fillColor=none;align=center;verticalAlign=middle;whiteSpace=wrap;rounded=0;fontStyle=1" parent="1" vertex="1">
          <mxGeometry x="150" y="660" width="40" height="30" as="geometry" />
        </mxCell>
        <mxCell id="fAfMOuDEGAaXCi6AJNAk-15" value="&lt;div&gt;16&lt;/div&gt;" style="text;html=1;strokeColor=none;fillColor=none;align=center;verticalAlign=middle;whiteSpace=wrap;rounded=0;fontStyle=1" parent="1" vertex="1">
          <mxGeometry x="70" y="600" width="40" height="30" as="geometry" />
        </mxCell>
        <mxCell id="fAfMOuDEGAaXCi6AJNAk-16" value="&lt;div&gt;16&lt;/div&gt;" style="text;html=1;strokeColor=none;fillColor=none;align=center;verticalAlign=middle;whiteSpace=wrap;rounded=0;fontStyle=1" parent="1" vertex="1">
          <mxGeometry x="20" y="400" width="40" height="30" as="geometry" />
        </mxCell>
        <mxCell id="fAfMOuDEGAaXCi6AJNAk-18" value="5" style="text;html=1;strokeColor=none;fillColor=none;align=center;verticalAlign=middle;whiteSpace=wrap;rounded=0;fontStyle=1" parent="1" vertex="1">
          <mxGeometry x="80" y="490" width="40" height="30" as="geometry" />
        </mxCell>
        <mxCell id="fAfMOuDEGAaXCi6AJNAk-19" value="5" style="text;html=1;strokeColor=none;fillColor=none;align=center;verticalAlign=middle;whiteSpace=wrap;rounded=0;fontStyle=1" parent="1" vertex="1">
          <mxGeometry x="70" y="450" width="40" height="30" as="geometry" />
        </mxCell>
        <mxCell id="fAfMOuDEGAaXCi6AJNAk-31" value="" style="shape=cube;whiteSpace=wrap;html=1;boundedLbl=1;backgroundOutline=1;darkOpacity=0.05;darkOpacity2=0.1;strokeColor=#C73500;fillColor=#fa6800;fontColor=#000000;" parent="1" vertex="1">
          <mxGeometry x="100" y="440" width="30" height="67.5" as="geometry" />
        </mxCell>
        <mxCell id="B9Ugd9xLmMCQVDh8KPLv-2" value="" style="shape=cube;whiteSpace=wrap;html=1;boundedLbl=1;backgroundOutline=1;darkOpacity=0.05;darkOpacity2=0.1;size=100;perimeterSpacing=0;strokeColor=#b46504;fillColor=#fad7ac;" vertex="1" parent="1">
          <mxGeometry x="205" y="270" width="220" height="400" as="geometry" />
        </mxCell>
        <mxCell id="B9Ugd9xLmMCQVDh8KPLv-3" value="128" style="text;html=1;strokeColor=none;fillColor=none;align=center;verticalAlign=middle;whiteSpace=wrap;rounded=0;fontStyle=1" vertex="1" parent="1">
          <mxGeometry x="353" y="673" width="40" height="30" as="geometry" />
        </mxCell>
        <mxCell id="B9Ugd9xLmMCQVDh8KPLv-4" value="&lt;div&gt;16&lt;/div&gt;" style="text;html=1;strokeColor=none;fillColor=none;align=center;verticalAlign=middle;whiteSpace=wrap;rounded=0;fontStyle=1" vertex="1" parent="1">
          <mxGeometry x="208" y="610" width="40" height="30" as="geometry" />
        </mxCell>
        <mxCell id="B9Ugd9xLmMCQVDh8KPLv-5" value="&lt;div&gt;16&lt;/div&gt;" style="text;html=1;strokeColor=none;fillColor=none;align=center;verticalAlign=middle;whiteSpace=wrap;rounded=0;fontStyle=1" vertex="1" parent="1">
          <mxGeometry x="172" y="410" width="40" height="30" as="geometry" />
        </mxCell>
        <mxCell id="B9Ugd9xLmMCQVDh8KPLv-6" value="5" style="text;html=1;strokeColor=none;fillColor=none;align=center;verticalAlign=middle;whiteSpace=wrap;rounded=0;fontStyle=1" vertex="1" parent="1">
          <mxGeometry x="218" y="500" width="40" height="30" as="geometry" />
        </mxCell>
        <mxCell id="B9Ugd9xLmMCQVDh8KPLv-7" value="5" style="text;html=1;strokeColor=none;fillColor=none;align=center;verticalAlign=middle;whiteSpace=wrap;rounded=0;fontStyle=1" vertex="1" parent="1">
          <mxGeometry x="208" y="460" width="40" height="30" as="geometry" />
        </mxCell>
        <mxCell id="B9Ugd9xLmMCQVDh8KPLv-8" value="" style="shape=cube;whiteSpace=wrap;html=1;boundedLbl=1;backgroundOutline=1;darkOpacity=0.05;darkOpacity2=0.1;strokeColor=#C73500;fillColor=#fa6800;fontColor=#000000;" vertex="1" parent="1">
          <mxGeometry x="238" y="437" width="160" height="67.5" as="geometry" />
        </mxCell>
        <mxCell id="B9Ugd9xLmMCQVDh8KPLv-13" value="" style="endArrow=none;dashed=1;html=1;rounded=0;entryX=0;entryY=0;entryDx=100;entryDy=400;entryPerimeter=0;exitX=0.455;exitY=0.253;exitDx=0;exitDy=0;exitPerimeter=0;" edge="1" parent="1" source="B9Ugd9xLmMCQVDh8KPLv-2" target="B9Ugd9xLmMCQVDh8KPLv-2">
          <mxGeometry width="50" height="50" relative="1" as="geometry">
            <mxPoint x="529" y="471" as="sourcePoint" />
            <mxPoint x="514" y="386" as="targetPoint" />
          </mxGeometry>
        </mxCell>
        <mxCell id="B9Ugd9xLmMCQVDh8KPLv-21" value="" style="shape=cube;whiteSpace=wrap;html=1;boundedLbl=1;backgroundOutline=1;darkOpacity=0.05;darkOpacity2=0.1;size=100;perimeterSpacing=0;strokeColor=#b46504;fillColor=#fad7ac;" vertex="1" parent="1">
          <mxGeometry x="677" y="270" width="160" height="400" as="geometry" />
        </mxCell>
        <mxCell id="B9Ugd9xLmMCQVDh8KPLv-22" value="&lt;div&gt;64&lt;/div&gt;" style="text;html=1;strokeColor=none;fillColor=none;align=center;verticalAlign=middle;whiteSpace=wrap;rounded=0;fontStyle=1" vertex="1" parent="1">
          <mxGeometry x="794" y="673" width="40" height="29" as="geometry" />
        </mxCell>
        <mxCell id="B9Ugd9xLmMCQVDh8KPLv-23" value="&lt;div&gt;16&lt;/div&gt;" style="text;html=1;strokeColor=none;fillColor=none;align=center;verticalAlign=middle;whiteSpace=wrap;rounded=0;fontStyle=1" vertex="1" parent="1">
          <mxGeometry x="680" y="610" width="40" height="30" as="geometry" />
        </mxCell>
        <mxCell id="B9Ugd9xLmMCQVDh8KPLv-24" value="5" style="text;html=1;strokeColor=none;fillColor=none;align=center;verticalAlign=middle;whiteSpace=wrap;rounded=0;fontStyle=1" vertex="1" parent="1">
          <mxGeometry x="707" y="488" width="40" height="30" as="geometry" />
        </mxCell>
        <mxCell id="B9Ugd9xLmMCQVDh8KPLv-25" value="5" style="text;html=1;strokeColor=none;fillColor=none;align=center;verticalAlign=middle;whiteSpace=wrap;rounded=0;fontStyle=1" vertex="1" parent="1">
          <mxGeometry x="694" y="449" width="40" height="30" as="geometry" />
        </mxCell>
        <mxCell id="B9Ugd9xLmMCQVDh8KPLv-26" value="" style="shape=cube;whiteSpace=wrap;html=1;boundedLbl=1;backgroundOutline=1;darkOpacity=0.05;darkOpacity2=0.1;strokeColor=#C73500;fillColor=#fa6800;fontColor=#000000;" vertex="1" parent="1">
          <mxGeometry x="725" y="437" width="90" height="67.5" as="geometry" />
        </mxCell>
        <mxCell id="B9Ugd9xLmMCQVDh8KPLv-28" value="" style="endArrow=none;dashed=1;html=1;rounded=0;entryX=0.625;entryY=0.253;entryDx=0;entryDy=0;entryPerimeter=0;" edge="1" parent="1" target="B9Ugd9xLmMCQVDh8KPLv-21">
          <mxGeometry width="50" height="50" relative="1" as="geometry">
            <mxPoint x="777" y="668" as="sourcePoint" />
            <mxPoint x="827" y="618" as="targetPoint" />
          </mxGeometry>
        </mxCell>
        <mxCell id="B9Ugd9xLmMCQVDh8KPLv-29" value="" style="shape=cube;whiteSpace=wrap;html=1;boundedLbl=1;backgroundOutline=1;darkOpacity=0.05;darkOpacity2=0.1;size=100;perimeterSpacing=0;strokeColor=#b46504;fillColor=#fad7ac;" vertex="1" parent="1">
          <mxGeometry x="859" y="270" width="160" height="400" as="geometry" />
        </mxCell>
        <mxCell id="B9Ugd9xLmMCQVDh8KPLv-30" value="&lt;div&gt;64&lt;/div&gt;" style="text;html=1;strokeColor=none;fillColor=none;align=center;verticalAlign=middle;whiteSpace=wrap;rounded=0;fontStyle=1" vertex="1" parent="1">
          <mxGeometry x="976" y="673" width="40" height="29" as="geometry" />
        </mxCell>
        <mxCell id="B9Ugd9xLmMCQVDh8KPLv-31" value="&lt;div&gt;16&lt;/div&gt;" style="text;html=1;strokeColor=none;fillColor=none;align=center;verticalAlign=middle;whiteSpace=wrap;rounded=0;fontStyle=1" vertex="1" parent="1">
          <mxGeometry x="862" y="610" width="40" height="30" as="geometry" />
        </mxCell>
        <mxCell id="B9Ugd9xLmMCQVDh8KPLv-32" value="5" style="text;html=1;strokeColor=none;fillColor=none;align=center;verticalAlign=middle;whiteSpace=wrap;rounded=0;fontStyle=1" vertex="1" parent="1">
          <mxGeometry x="889" y="488" width="40" height="30" as="geometry" />
        </mxCell>
        <mxCell id="B9Ugd9xLmMCQVDh8KPLv-33" value="5" style="text;html=1;strokeColor=none;fillColor=none;align=center;verticalAlign=middle;whiteSpace=wrap;rounded=0;fontStyle=1" vertex="1" parent="1">
          <mxGeometry x="876" y="449" width="40" height="30" as="geometry" />
        </mxCell>
        <mxCell id="B9Ugd9xLmMCQVDh8KPLv-34" value="" style="shape=cube;whiteSpace=wrap;html=1;boundedLbl=1;backgroundOutline=1;darkOpacity=0.05;darkOpacity2=0.1;strokeColor=#C73500;fillColor=#fa6800;fontColor=#000000;" vertex="1" parent="1">
          <mxGeometry x="907" y="437" width="90" height="67.5" as="geometry" />
        </mxCell>
        <mxCell id="B9Ugd9xLmMCQVDh8KPLv-35" value="" style="endArrow=none;dashed=1;html=1;rounded=0;entryX=0.625;entryY=0.253;entryDx=0;entryDy=0;entryPerimeter=0;" edge="1" parent="1" target="B9Ugd9xLmMCQVDh8KPLv-29">
          <mxGeometry width="50" height="50" relative="1" as="geometry">
            <mxPoint x="959" y="668" as="sourcePoint" />
            <mxPoint x="1009" y="618" as="targetPoint" />
          </mxGeometry>
        </mxCell>
        <mxCell id="B9Ugd9xLmMCQVDh8KPLv-36" value="0" style="shape=cube;whiteSpace=wrap;html=1;boundedLbl=1;backgroundOutline=1;darkOpacity=0.05;darkOpacity2=0.1;size=100;perimeterSpacing=0;strokeColor=#b46504;fillColor=#fad7ac;" vertex="1" parent="1">
          <mxGeometry x="1038" y="270" width="120" height="400" as="geometry" />
        </mxCell>
        <mxCell id="B9Ugd9xLmMCQVDh8KPLv-37" value="32" style="text;html=1;strokeColor=none;fillColor=none;align=center;verticalAlign=middle;whiteSpace=wrap;rounded=0;fontStyle=1" vertex="1" parent="1">
          <mxGeometry x="1155" y="673" width="40" height="29" as="geometry" />
        </mxCell>
        <mxCell id="B9Ugd9xLmMCQVDh8KPLv-38" value="&lt;div&gt;16&lt;/div&gt;" style="text;html=1;strokeColor=none;fillColor=none;align=center;verticalAlign=middle;whiteSpace=wrap;rounded=0;fontStyle=1" vertex="1" parent="1">
          <mxGeometry x="1041" y="610" width="40" height="30" as="geometry" />
        </mxCell>
        <mxCell id="B9Ugd9xLmMCQVDh8KPLv-39" value="5" style="text;html=1;strokeColor=none;fillColor=none;align=center;verticalAlign=middle;whiteSpace=wrap;rounded=0;fontStyle=1" vertex="1" parent="1">
          <mxGeometry x="1068" y="488" width="40" height="30" as="geometry" />
        </mxCell>
        <mxCell id="B9Ugd9xLmMCQVDh8KPLv-40" value="5" style="text;html=1;strokeColor=none;fillColor=none;align=center;verticalAlign=middle;whiteSpace=wrap;rounded=0;fontStyle=1" vertex="1" parent="1">
          <mxGeometry x="1055" y="449" width="40" height="30" as="geometry" />
        </mxCell>
        <mxCell id="B9Ugd9xLmMCQVDh8KPLv-41" value="" style="shape=cube;whiteSpace=wrap;html=1;boundedLbl=1;backgroundOutline=1;darkOpacity=0.05;darkOpacity2=0.1;strokeColor=#C73500;fillColor=#fa6800;fontColor=#000000;" vertex="1" parent="1">
          <mxGeometry x="1086" y="437" width="40" height="67.5" as="geometry" />
        </mxCell>
      </root>
    </mxGraphModel>
  </diagram>
</mxfile>
